<?xml version='1.0' encoding='utf-8'?>
<mlt LC_NUMERIC="C" producer="main_bin" version="7.8.0" root="/home/satoshi/Desktop/hashimoto-bonodori">
 <profile frame_rate_num="30000" sample_aspect_num="1" display_aspect_den="2" colorspace="601" progressive="1" description="480x320 29.97fps" display_aspect_num="3" frame_rate_den="1001" width="480" height="320" sample_aspect_den="1"/>
 <producer id="producer0" in="00:00:00.000" out="00:00:41.074">
  <property name="length">1232</property>
  <property name="eof">pause</property>
  <property name="resource">AGDRec.mp4</property>
  <property name="audio_index">1</property>
  <property name="video_index">0</property>
  <property name="mute_on_pause">0</property>
  <property name="mlt_service">avformat-novalidate</property>
  <property name="meta.media.nb_streams">2</property>
  <property name="meta.media.0.stream.type">video</property>
  <property name="meta.media.0.stream.frame_rate">29.9706</property>
  <property name="meta.media.0.stream.sample_aspect_ratio">0</property>
  <property name="meta.media.0.codec.width">480</property>
  <property name="meta.media.0.codec.height">320</property>
  <property name="meta.media.0.codec.rotate">0</property>
  <property name="meta.media.0.codec.pix_fmt">yuv420p</property>
  <property name="meta.media.0.codec.sample_aspect_ratio">1</property>
  <property name="meta.media.0.codec.colorspace">601</property>
  <property name="meta.media.0.codec.name">h264</property>
  <property name="meta.media.0.codec.long_name">H.264 / AVC / MPEG-4 AVC / MPEG-4 part 10</property>
  <property name="meta.media.0.codec.bit_rate">876336</property>
  <property name="meta.media.1.stream.type">audio</property>
  <property name="meta.media.1.codec.sample_fmt">fltp</property>
  <property name="meta.media.1.codec.sample_rate">48000</property>
  <property name="meta.media.1.codec.channels">2</property>
  <property name="meta.media.1.codec.name">aac</property>
  <property name="meta.media.1.codec.long_name">AAC (Advanced Audio Coding)</property>
  <property name="meta.media.1.codec.bit_rate">117362</property>
  <property name="seekable">1</property>
  <property name="meta.media.sample_aspect_num">1</property>
  <property name="meta.media.sample_aspect_den">1</property>
  <property name="aspect_ratio">1</property>
  <property name="kdenlive:clipname"/>
  <property name="kdenlive:clip_type">0</property>
  <property name="kdenlive:folderid">-1</property>
  <property name="kdenlive:id">2</property>
  <property name="kdenlive:file_size">5132697</property>
  <property name="kdenlive:audio_max1">1</property>
  <property name="meta.media.frame_rate_num">1480518</property>
  <property name="meta.media.frame_rate_den">49399</property>
  <property name="meta.media.colorspace">601</property>
  <property name="meta.media.color_trc">2</property>
  <property name="meta.media.has_b_frames">0</property>
  <property name="meta.media.width">480</property>
  <property name="meta.media.height">320</property>
  <property name="meta.media.color_range">mpeg</property>
  <property name="meta.media.top_field_first">0</property>
  <property name="meta.media.progressive">1</property>
  <property name="kdenlive:file_hash">6c08fb1a4a7495b98c931b752f72a35e</property>
  <property name="meta.attr.0.stream.creation_time.markup">2022-09-08T02:13:35.000000Z</property>
  <property name="meta.attr.0.stream.handler_name.markup">VideoHandler</property>
  <property name="meta.attr.0.stream.encoder.markup">AVC Coding</property>
  <property name="meta.attr.1.stream.creation_time.markup">2022-09-08T02:13:35.000000Z</property>
  <property name="meta.attr.1.stream.handler_name.markup">SoundHandler</property>
  <property name="meta.attr.major_brand.markup">mp42</property>
  <property name="meta.attr.minor_version.markup">0</property>
  <property name="meta.attr.compatible_brands.markup">mp41isom</property>
  <property name="meta.attr.creation_time.markup">2022-09-08T02:13:35.000000Z</property>
 </producer>
 <producer id="producer2" in="00:00:00.000" out="00:01:58.025">
  <property name="length">3538</property>
  <property name="eof">pause</property>
  <property name="resource">sanjinooyatsu.mp3</property>
  <property name="meta.media.nb_streams">1</property>
  <property name="meta.media.0.stream.type">audio</property>
  <property name="meta.media.0.codec.sample_fmt">fltp</property>
  <property name="meta.media.0.codec.sample_rate">44100</property>
  <property name="meta.media.0.codec.channels">2</property>
  <property name="meta.media.0.codec.name">mp3float</property>
  <property name="meta.media.0.codec.long_name">MP3 (MPEG audio layer 3)</property>
  <property name="meta.media.0.codec.bit_rate">128000</property>
  <property name="meta.attr.TDAT.markup">1512</property>
  <property name="meta.attr.TIME.markup">0902</property>
  <property name="meta.attr.encoder.markup">KORG AudioGate ver.2.2.0 (Windows 7)</property>
  <property name="meta.attr.title.markup">3時のおやつ</property>
  <property name="meta.attr.artist.markup">甘茶の音楽工房</property>
  <property name="seekable">1</property>
  <property name="audio_index">0</property>
  <property name="video_index">-1</property>
  <property name="mute_on_pause">1</property>
  <property name="mlt_service">avformat</property>
  <property name="kdenlive:clipname"/>
  <property name="kdenlive:clip_type">1</property>
  <property name="kdenlive:folderid">-1</property>
  <property name="kdenlive:id">4</property>
  <property name="kdenlive:file_size">1892966</property>
  <property name="kdenlive:file_hash">99ca7ff61b147c655bf62d04dc1a2773</property>
  <property name="kdenlive:audio_max0">193</property>
 </producer>
 <producer id="producer1" in="00:00:00.000" out="00:01:11.845">
  <property name="length">2154</property>
  <property name="eof">pause</property>
  <property name="resource">y2mate.com100729_480p.mp4</property>
  <property name="meta.media.nb_streams">2</property>
  <property name="meta.media.0.stream.type">video</property>
  <property name="meta.media.0.stream.frame_rate">29.97</property>
  <property name="meta.media.0.stream.sample_aspect_ratio">1</property>
  <property name="meta.media.0.codec.width">854</property>
  <property name="meta.media.0.codec.height">480</property>
  <property name="meta.media.0.codec.rotate">0</property>
  <property name="meta.media.0.codec.pix_fmt">yuv420p</property>
  <property name="meta.media.0.codec.sample_aspect_ratio">1</property>
  <property name="meta.media.0.codec.colorspace">709</property>
  <property name="meta.media.0.codec.color_trc">1</property>
  <property name="meta.media.0.codec.name">h264</property>
  <property name="meta.media.0.codec.long_name">H.264 / AVC / MPEG-4 AVC / MPEG-4 part 10</property>
  <property name="meta.media.0.codec.bit_rate">1021544</property>
  <property name="meta.attr.0.stream.handler_name.markup">ISO Media file produced by Google Inc. Created on: 07/16/2022.</property>
  <property name="meta.media.1.stream.type">audio</property>
  <property name="meta.media.1.codec.sample_fmt">fltp</property>
  <property name="meta.media.1.codec.sample_rate">44100</property>
  <property name="meta.media.1.codec.channels">2</property>
  <property name="meta.media.1.codec.name">aac</property>
  <property name="meta.media.1.codec.long_name">AAC (Advanced Audio Coding)</property>
  <property name="meta.media.1.codec.bit_rate">125588</property>
  <property name="meta.attr.1.stream.handler_name.markup">SoundHandler</property>
  <property name="meta.attr.major_brand.markup">isom</property>
  <property name="meta.attr.minor_version.markup">512</property>
  <property name="meta.attr.compatible_brands.markup">isomiso2avc1mp41</property>
  <property name="meta.attr.encoder.markup">Lavf58.19.102</property>
  <property name="seekable">1</property>
  <property name="meta.media.sample_aspect_num">1</property>
  <property name="meta.media.sample_aspect_den">1</property>
  <property name="aspect_ratio">1</property>
  <property name="audio_index">1</property>
  <property name="video_index">0</property>
  <property name="mute_on_pause">0</property>
  <property name="mlt_service">avformat-novalidate</property>
  <property name="kdenlive:clipname"/>
  <property name="meta.media.frame_rate_num">30000</property>
  <property name="meta.media.frame_rate_den">1001</property>
  <property name="meta.media.colorspace">709</property>
  <property name="meta.media.color_trc">1</property>
  <property name="meta.media.has_b_frames">0</property>
  <property name="meta.media.width">854</property>
  <property name="meta.media.height">480</property>
  <property name="meta.media.color_range">mpeg</property>
  <property name="meta.media.top_field_first">0</property>
  <property name="meta.media.progressive">1</property>
  <property name="kdenlive:clip_type">0</property>
  <property name="kdenlive:proxy">-</property>
  <property name="kdenlive:originalurl">y2mate.com100729_480p.mp4</property>
  <property name="kdenlive:id">3</property>
  <property name="kdenlive:file_size">10359460</property>
  <property name="kdenlive:file_hash">ec2ecf45e41100dd8bf9696dc723ad7f</property>
  <property name="kdenlive:folderid">-1</property>
  <property name="kdenlive:audio_max1">174</property>
 </producer>
 <playlist id="main_bin">
  <property name="kdenlive:docproperties.activeTrack">6</property>
  <property name="kdenlive:docproperties.audioChannels">2</property>
  <property name="kdenlive:docproperties.audioTarget">4</property>
  <property name="kdenlive:docproperties.disablepreview">0</property>
  <property name="kdenlive:docproperties.documentid">1660661861534</property>
  <property name="kdenlive:docproperties.enableTimelineZone">0</property>
  <property name="kdenlive:docproperties.enableexternalproxy">0</property>
  <property name="kdenlive:docproperties.enableproxy">1</property>
  <property name="kdenlive:docproperties.externalproxyparams">./;GL;.LRV;./;GX;.MP4;./;GP;.LRV;./;GP;.MP4</property>
  <property name="kdenlive:docproperties.generateimageproxy">0</property>
  <property name="kdenlive:docproperties.generateproxy">0</property>
  <property name="kdenlive:docproperties.groups">[
    {
        "children": [
            {
                "data": "3:355",
                "leaf": "clip",
                "type": "Leaf"
            },
            {
                "data": "6:355",
                "leaf": "clip",
                "type": "Leaf"
            }
        ],
        "type": "AVSplit"
    },
    {
        "children": [
            {
                "data": "7:0",
                "leaf": "clip",
                "type": "Leaf"
            },
            {
                "data": "2:0",
                "leaf": "clip",
                "type": "Leaf"
            }
        ],
        "type": "AVSplit"
    },
    {
        "children": [
            {
                "data": "6:311",
                "leaf": "clip",
                "type": "Leaf"
            },
            {
                "data": "3:311",
                "leaf": "clip",
                "type": "Leaf"
            }
        ],
        "type": "AVSplit"
    },
    {
        "children": [
            {
                "data": "5:0",
                "leaf": "clip",
                "type": "Leaf"
            },
            {
                "data": "4:0",
                "leaf": "clip",
                "type": "Leaf"
            }
        ],
        "type": "AVSplit"
    }
]
</property>
  <property name="kdenlive:docproperties.kdenliveversion">22.04.3</property>
  <property name="kdenlive:docproperties.position">0</property>
  <property name="kdenlive:docproperties.previewextension"/>
  <property name="kdenlive:docproperties.previewparameters"/>
  <property name="kdenlive:docproperties.profile">/home/satoshi/.local/share/kdenlive/profiles/customprofile6</property>
  <property name="kdenlive:docproperties.proxyextension"/>
  <property name="kdenlive:docproperties.proxyimageminsize">2000</property>
  <property name="kdenlive:docproperties.proxyimagesize">800</property>
  <property name="kdenlive:docproperties.proxyminsize">1000</property>
  <property name="kdenlive:docproperties.proxyparams"/>
  <property name="kdenlive:docproperties.proxyresize">640</property>
  <property name="kdenlive:docproperties.rendercategory">Generic (HD for web, mobile devices...)</property>
  <property name="kdenlive:docproperties.rendercustomquality">-1</property>
  <property name="kdenlive:docproperties.renderendguide">-1</property>
  <property name="kdenlive:docproperties.renderexportaudio">0</property>
  <property name="kdenlive:docproperties.rendermode">0</property>
  <property name="kdenlive:docproperties.renderplay">0</property>
  <property name="kdenlive:docproperties.renderpreview">0</property>
  <property name="kdenlive:docproperties.renderprofile">MP4-H264/AAC</property>
  <property name="kdenlive:docproperties.renderratio">1</property>
  <property name="kdenlive:docproperties.renderrescale">0</property>
  <property name="kdenlive:docproperties.renderrescaleheight">160</property>
  <property name="kdenlive:docproperties.renderrescalewidth">240</property>
  <property name="kdenlive:docproperties.renderspeed">6</property>
  <property name="kdenlive:docproperties.renderstartguide">-1</property>
  <property name="kdenlive:docproperties.rendertcoverlay">0</property>
  <property name="kdenlive:docproperties.rendertctype">-1</property>
  <property name="kdenlive:docproperties.rendertwopass">0</property>
  <property name="kdenlive:docproperties.renderurl">/home/satoshi/Videos/bonodori.mp4</property>
  <property name="kdenlive:docproperties.scrollPos">0</property>
  <property name="kdenlive:docproperties.seekOffset">30000</property>
  <property name="kdenlive:docproperties.storagefolder">/home/satoshi/Videos/hashimoto-yahoo/cachefiles/1660661861534</property>
  <property name="kdenlive:docproperties.version">1.04</property>
  <property name="kdenlive:docproperties.verticalzoom">1</property>
  <property name="kdenlive:docproperties.videoTarget">5</property>
  <property name="kdenlive:docproperties.zonein">0</property>
  <property name="kdenlive:docproperties.zoneout">75</property>
  <property name="kdenlive:docproperties.zoom">4</property>
  <property name="kdenlive:expandedFolders"/>
  <property name="kdenlive:documentnotes"/>
  <property name="xml_retain">1</property>
  <entry producer="producer0" in="00:00:00.000" out="00:00:41.074"/>
  <entry producer="producer2" in="00:00:00.000" out="00:01:58.025"/>
  <entry producer="producer1" in="00:00:00.000" out="00:01:11.845"/>
 </playlist>
 <producer id="black_track" in="00:00:00.000" out="00:17:11.345">
  <property name="length">2147483647</property>
  <property name="eof">continue</property>
  <property name="resource">black</property>
  <property name="aspect_ratio">1</property>
  <property name="mlt_service">color</property>
  <property name="mlt_image_format">rgba</property>
  <property name="set.test_audio">0</property>
 </producer>
 <playlist id="playlist0">
  <property name="kdenlive:audio_track">1</property>
 </playlist>
 <playlist id="playlist1">
  <property name="kdenlive:audio_track">1</property>
 </playlist>
 <tractor id="tractor0" in="00:00:00.000">
  <property name="kdenlive:audio_track">1</property>
  <property name="kdenlive:trackheight">67</property>
  <property name="kdenlive:timeline_active">1</property>
  <property name="kdenlive:collapsed">0</property>
  <property name="kdenlive:thumbs_format"/>
  <property name="kdenlive:audio_rec"/>
  <track hide="video" producer="playlist0"/>
  <track hide="video" producer="playlist1"/>
  <filter id="filter0">
   <property name="window">75</property>
   <property name="max_gain">20dB</property>
   <property name="mlt_service">volume</property>
   <property name="internal_added">237</property>
   <property name="disable">1</property>
  </filter>
  <filter id="filter1">
   <property name="channel">-1</property>
   <property name="mlt_service">panner</property>
   <property name="internal_added">237</property>
   <property name="start">0.5</property>
   <property name="disable">1</property>
  </filter>
  <filter id="filter2">
   <property name="iec_scale">0</property>
   <property name="mlt_service">audiolevel</property>
   <property name="peak">1</property>
   <property name="disable">1</property>
  </filter>
 </tractor>
 <producer id="producer3" in="00:00:00.000" out="00:01:58.025">
  <property name="length">3538</property>
  <property name="eof">pause</property>
  <property name="resource">sanjinooyatsu.mp3</property>
  <property name="audio_index">0</property>
  <property name="video_index">-1</property>
  <property name="mute_on_pause">0</property>
  <property name="mlt_service">avformat-novalidate</property>
  <property name="meta.media.nb_streams">1</property>
  <property name="meta.media.0.stream.type">audio</property>
  <property name="meta.media.0.codec.sample_fmt">fltp</property>
  <property name="meta.media.0.codec.sample_rate">44100</property>
  <property name="meta.media.0.codec.channels">2</property>
  <property name="meta.media.0.codec.name">mp3float</property>
  <property name="meta.media.0.codec.long_name">MP3 (MPEG audio layer 3)</property>
  <property name="meta.media.0.codec.bit_rate">128000</property>
  <property name="meta.attr.TDAT.markup">1512</property>
  <property name="meta.attr.TIME.markup">0902</property>
  <property name="meta.attr.encoder.markup">KORG AudioGate ver.2.2.0 (Windows 7)</property>
  <property name="meta.attr.title.markup">3時のおやつ</property>
  <property name="meta.attr.artist.markup">甘茶の音楽工房</property>
  <property name="seekable">1</property>
  <property name="kdenlive:clipname"/>
  <property name="kdenlive:clip_type">1</property>
  <property name="kdenlive:folderid">-1</property>
  <property name="kdenlive:id">4</property>
  <property name="kdenlive:file_size">1892966</property>
  <property name="kdenlive:file_hash">99ca7ff61b147c655bf62d04dc1a2773</property>
  <property name="kdenlive:audio_max0">193</property>
  <property name="xml">was here</property>
  <property name="set.test_audio">0</property>
  <property name="set.test_image">1</property>
 </producer>
 <playlist id="playlist2">
  <property name="kdenlive:audio_track">1</property>
  <entry producer="producer3" in="00:00:00.000" out="00:00:30.297">
   <property name="kdenlive:id">4</property>
   <filter id="filter3">
    <property name="window">75</property>
    <property name="max_gain">20dB</property>
    <property name="level">00:00:00.000=0;00:00:09.943=0;00:00:10.444=-14;00:00:26.360=-14;00:00:26.527=0;00:00:29.796=0;00:00:30.297=-25</property>
    <property name="mlt_service">volume</property>
    <property name="kdenlive_id">volume</property>
    <property name="kdenlive:collapsed">0</property>
   </filter>
  </entry>
 </playlist>
 <playlist id="playlist3">
  <property name="kdenlive:audio_track">1</property>
 </playlist>
 <tractor id="tractor1" in="00:00:00.000" out="00:00:30.297">
  <property name="kdenlive:audio_track">1</property>
  <property name="kdenlive:trackheight">67</property>
  <property name="kdenlive:timeline_active">1</property>
  <property name="kdenlive:collapsed">0</property>
  <property name="kdenlive:thumbs_format"/>
  <property name="kdenlive:audio_rec"/>
  <track hide="video" producer="playlist2"/>
  <track hide="video" producer="playlist3"/>
  <filter id="filter4">
   <property name="window">75</property>
   <property name="max_gain">20dB</property>
   <property name="level">-4.67557</property>
   <property name="mlt_service">volume</property>
   <property name="internal_added">237</property>
   <property name="disable">0</property>
  </filter>
  <filter id="filter5">
   <property name="channel">-1</property>
   <property name="mlt_service">panner</property>
   <property name="internal_added">237</property>
   <property name="start">0.5</property>
   <property name="disable">1</property>
  </filter>
  <filter id="filter6">
   <property name="iec_scale">0</property>
   <property name="mlt_service">audiolevel</property>
   <property name="peak">1</property>
   <property name="disable">1</property>
  </filter>
 </tractor>
 <producer id="producer4" in="00:00:00.000" out="00:00:41.074">
  <property name="length">1232</property>
  <property name="eof">pause</property>
  <property name="resource">AGDRec.mp4</property>
  <property name="audio_index">1</property>
  <property name="video_index">0</property>
  <property name="mute_on_pause">0</property>
  <property name="mlt_service">avformat-novalidate</property>
  <property name="seekable">1</property>
  <property name="aspect_ratio">1</property>
  <property name="kdenlive:clipname"/>
  <property name="kdenlive:clip_type">0</property>
  <property name="kdenlive:folderid">-1</property>
  <property name="kdenlive:id">2</property>
  <property name="kdenlive:file_size">35842816</property>
  <property name="kdenlive:file_hash">971c1fdb011e5e4debbdb5257f29f178</property>
  <property name="kdenlive:audio_max1">1</property>
  <property name="xml">was here</property>
  <property name="meta.media.nb_streams">2</property>
  <property name="meta.media.0.stream.type">video</property>
  <property name="meta.media.0.stream.frame_rate">29.9706</property>
  <property name="meta.media.0.stream.sample_aspect_ratio">0</property>
  <property name="meta.media.0.codec.width">480</property>
  <property name="meta.media.0.codec.height">320</property>
  <property name="meta.media.0.codec.rotate">0</property>
  <property name="meta.media.0.codec.pix_fmt">yuv420p</property>
  <property name="meta.media.0.codec.sample_aspect_ratio">1</property>
  <property name="meta.media.0.codec.colorspace">601</property>
  <property name="meta.media.0.codec.name">h264</property>
  <property name="meta.media.0.codec.long_name">H.264 / AVC / MPEG-4 AVC / MPEG-4 part 10</property>
  <property name="meta.media.0.codec.bit_rate">876336</property>
  <property name="meta.media.1.stream.type">audio</property>
  <property name="meta.media.1.codec.sample_fmt">fltp</property>
  <property name="meta.media.1.codec.sample_rate">48000</property>
  <property name="meta.media.1.codec.channels">2</property>
  <property name="meta.media.1.codec.name">aac</property>
  <property name="meta.media.1.codec.long_name">AAC (Advanced Audio Coding)</property>
  <property name="meta.media.1.codec.bit_rate">117362</property>
  <property name="meta.media.sample_aspect_num">1</property>
  <property name="meta.media.sample_aspect_den">1</property>
  <property name="meta.media.frame_rate_num">1480518</property>
  <property name="meta.media.frame_rate_den">49399</property>
  <property name="meta.media.colorspace">601</property>
  <property name="meta.media.color_trc">2</property>
  <property name="meta.media.has_b_frames">0</property>
  <property name="meta.media.width">480</property>
  <property name="meta.media.height">320</property>
  <property name="meta.media.color_range">mpeg</property>
  <property name="meta.media.top_field_first">0</property>
  <property name="meta.media.progressive">1</property>
  <property name="set.test_audio">0</property>
  <property name="set.test_image">1</property>
  <property name="meta.attr.0.stream.creation_time.markup">2022-09-08T02:13:35.000000Z</property>
  <property name="meta.attr.0.stream.handler_name.markup">VideoHandler</property>
  <property name="meta.attr.0.stream.encoder.markup">AVC Coding</property>
  <property name="meta.attr.1.stream.creation_time.markup">2022-09-08T02:13:35.000000Z</property>
  <property name="meta.attr.1.stream.handler_name.markup">SoundHandler</property>
  <property name="meta.attr.major_brand.markup">mp42</property>
  <property name="meta.attr.minor_version.markup">0</property>
  <property name="meta.attr.compatible_brands.markup">mp41isom</property>
  <property name="meta.attr.creation_time.markup">2022-09-08T02:13:35.000000Z</property>
 </producer>
 <playlist id="playlist4">
  <property name="kdenlive:audio_track">1</property>
  <entry producer="producer4" in="00:00:02.202" out="00:00:32.499">
   <property name="kdenlive:id">2</property>
  </entry>
 </playlist>
 <playlist id="playlist5">
  <property name="kdenlive:audio_track">1</property>
 </playlist>
 <tractor id="tractor2" in="00:00:00.000" out="00:00:30.297">
  <property name="kdenlive:audio_track">1</property>
  <property name="kdenlive:trackheight">67</property>
  <property name="kdenlive:timeline_active">1</property>
  <property name="kdenlive:collapsed">0</property>
  <property name="kdenlive:thumbs_format"/>
  <property name="kdenlive:audio_rec"/>
  <track hide="video" producer="playlist4"/>
  <track hide="video" producer="playlist5"/>
  <filter id="filter7">
   <property name="window">75</property>
   <property name="max_gain">20dB</property>
   <property name="mlt_service">volume</property>
   <property name="internal_added">237</property>
   <property name="disable">1</property>
  </filter>
  <filter id="filter8">
   <property name="channel">-1</property>
   <property name="mlt_service">panner</property>
   <property name="internal_added">237</property>
   <property name="start">0.5</property>
   <property name="disable">1</property>
  </filter>
  <filter id="filter9">
   <property name="iec_scale">0</property>
   <property name="mlt_service">audiolevel</property>
   <property name="peak">1</property>
   <property name="disable">1</property>
  </filter>
 </tractor>
 <producer id="producer5" in="00:00:00.000" out="00:01:11.845">
  <property name="length">2154</property>
  <property name="eof">pause</property>
  <property name="resource">y2mate.com100729_480p.mp4</property>
  <property name="audio_index">1</property>
  <property name="video_index">0</property>
  <property name="mute_on_pause">0</property>
  <property name="mlt_service">avformat-novalidate</property>
  <property name="seekable">1</property>
  <property name="aspect_ratio">1</property>
  <property name="kdenlive:clipname"/>
  <property name="kdenlive:clip_type">0</property>
  <property name="kdenlive:proxy">-</property>
  <property name="kdenlive:originalurl">y2mate.com100729_480p.mp4</property>
  <property name="kdenlive:id">3</property>
  <property name="kdenlive:file_size">10359460</property>
  <property name="kdenlive:file_hash">ec2ecf45e41100dd8bf9696dc723ad7f</property>
  <property name="kdenlive:folderid">-1</property>
  <property name="xml">was here</property>
  <property name="meta.media.nb_streams">2</property>
  <property name="meta.media.0.stream.type">video</property>
  <property name="meta.media.0.stream.frame_rate">29.97</property>
  <property name="meta.media.0.stream.sample_aspect_ratio">1</property>
  <property name="meta.media.0.codec.width">854</property>
  <property name="meta.media.0.codec.height">480</property>
  <property name="meta.media.0.codec.rotate">0</property>
  <property name="meta.media.0.codec.pix_fmt">yuv420p</property>
  <property name="meta.media.0.codec.sample_aspect_ratio">1</property>
  <property name="meta.media.0.codec.colorspace">709</property>
  <property name="meta.media.0.codec.color_trc">1</property>
  <property name="meta.media.0.codec.name">h264</property>
  <property name="meta.media.0.codec.long_name">H.264 / AVC / MPEG-4 AVC / MPEG-4 part 10</property>
  <property name="meta.media.0.codec.bit_rate">1021544</property>
  <property name="meta.attr.0.stream.handler_name.markup">ISO Media file produced by Google Inc. Created on: 07/16/2022.</property>
  <property name="meta.media.1.stream.type">audio</property>
  <property name="meta.media.1.codec.sample_fmt">fltp</property>
  <property name="meta.media.1.codec.sample_rate">44100</property>
  <property name="meta.media.1.codec.channels">2</property>
  <property name="meta.media.1.codec.name">aac</property>
  <property name="meta.media.1.codec.long_name">AAC (Advanced Audio Coding)</property>
  <property name="meta.media.1.codec.bit_rate">125588</property>
  <property name="meta.attr.1.stream.handler_name.markup">SoundHandler</property>
  <property name="meta.attr.major_brand.markup">isom</property>
  <property name="meta.attr.minor_version.markup">512</property>
  <property name="meta.attr.compatible_brands.markup">isomiso2avc1mp41</property>
  <property name="meta.attr.encoder.markup">Lavf58.19.102</property>
  <property name="meta.media.sample_aspect_num">1</property>
  <property name="meta.media.sample_aspect_den">1</property>
  <property name="meta.media.frame_rate_num">30000</property>
  <property name="meta.media.frame_rate_den">1001</property>
  <property name="meta.media.colorspace">709</property>
  <property name="meta.media.color_trc">1</property>
  <property name="meta.media.has_b_frames">0</property>
  <property name="meta.media.width">854</property>
  <property name="meta.media.height">480</property>
  <property name="meta.media.color_range">mpeg</property>
  <property name="meta.media.top_field_first">0</property>
  <property name="meta.media.progressive">1</property>
  <property name="set.test_audio">0</property>
  <property name="set.test_image">1</property>
 </producer>
 <playlist id="playlist6">
  <property name="kdenlive:audio_track">1</property>
  <blank length="00:00:10.377"/>
  <entry producer="producer5" in="00:00:55.822" out="00:00:57.257">
   <property name="kdenlive:id">3</property>
  </entry>
  <entry producer="producer5" in="00:00:57.291" out="00:01:11.845">
   <property name="kdenlive:id">3</property>
  </entry>
 </playlist>
 <playlist id="playlist7">
  <property name="kdenlive:audio_track">1</property>
 </playlist>
 <tractor id="tractor3" in="00:00:00.000" out="00:00:26.393">
  <property name="kdenlive:audio_track">1</property>
  <property name="kdenlive:trackheight">67</property>
  <property name="kdenlive:timeline_active">1</property>
  <property name="kdenlive:collapsed">0</property>
  <property name="kdenlive:thumbs_format"/>
  <property name="kdenlive:audio_rec"/>
  <track hide="video" producer="playlist6"/>
  <track hide="video" producer="playlist7"/>
  <filter id="filter10">
   <property name="window">75</property>
   <property name="max_gain">20dB</property>
   <property name="mlt_service">volume</property>
   <property name="internal_added">237</property>
   <property name="disable">1</property>
  </filter>
  <filter id="filter11">
   <property name="channel">-1</property>
   <property name="mlt_service">panner</property>
   <property name="internal_added">237</property>
   <property name="start">0.5</property>
   <property name="disable">1</property>
  </filter>
  <filter id="filter12">
   <property name="iec_scale">0</property>
   <property name="mlt_service">audiolevel</property>
   <property name="peak">1</property>
   <property name="disable">1</property>
  </filter>
 </tractor>
 <producer id="producer6" in="00:00:00.000" out="00:00:41.074">
  <property name="length">1232</property>
  <property name="eof">pause</property>
  <property name="resource">AGDRec.mp4</property>
  <property name="audio_index">1</property>
  <property name="video_index">0</property>
  <property name="mute_on_pause">0</property>
  <property name="mlt_service">avformat-novalidate</property>
  <property name="meta.media.nb_streams">2</property>
  <property name="meta.media.0.stream.type">video</property>
  <property name="meta.media.0.stream.frame_rate">29.9706</property>
  <property name="meta.media.0.stream.sample_aspect_ratio">0</property>
  <property name="meta.media.0.codec.width">480</property>
  <property name="meta.media.0.codec.height">320</property>
  <property name="meta.media.0.codec.rotate">0</property>
  <property name="meta.media.0.codec.pix_fmt">yuv420p</property>
  <property name="meta.media.0.codec.sample_aspect_ratio">1</property>
  <property name="meta.media.0.codec.colorspace">601</property>
  <property name="meta.media.0.codec.name">h264</property>
  <property name="meta.media.0.codec.long_name">H.264 / AVC / MPEG-4 AVC / MPEG-4 part 10</property>
  <property name="meta.media.0.codec.bit_rate">876336</property>
  <property name="meta.media.1.stream.type">audio</property>
  <property name="meta.media.1.codec.sample_fmt">fltp</property>
  <property name="meta.media.1.codec.sample_rate">48000</property>
  <property name="meta.media.1.codec.channels">2</property>
  <property name="meta.media.1.codec.name">aac</property>
  <property name="meta.media.1.codec.long_name">AAC (Advanced Audio Coding)</property>
  <property name="meta.media.1.codec.bit_rate">117362</property>
  <property name="seekable">1</property>
  <property name="meta.media.sample_aspect_num">1</property>
  <property name="meta.media.sample_aspect_den">1</property>
  <property name="aspect_ratio">1</property>
  <property name="kdenlive:clipname"/>
  <property name="kdenlive:clip_type">0</property>
  <property name="kdenlive:folderid">-1</property>
  <property name="kdenlive:id">2</property>
  <property name="kdenlive:file_size">35842816</property>
  <property name="kdenlive:file_hash">971c1fdb011e5e4debbdb5257f29f178</property>
  <property name="kdenlive:audio_max1">1</property>
  <property name="xml">was here</property>
  <property name="meta.media.frame_rate_num">1480518</property>
  <property name="meta.media.frame_rate_den">49399</property>
  <property name="meta.media.colorspace">601</property>
  <property name="meta.media.color_trc">2</property>
  <property name="meta.media.has_b_frames">0</property>
  <property name="meta.media.width">480</property>
  <property name="meta.media.height">320</property>
  <property name="meta.media.color_range">mpeg</property>
  <property name="meta.media.top_field_first">0</property>
  <property name="meta.media.progressive">1</property>
  <property name="set.test_audio">0</property>
  <property name="set.test_image">1</property>
  <property name="meta.attr.0.stream.creation_time.markup">2022-09-08T02:13:35.000000Z</property>
  <property name="meta.attr.0.stream.handler_name.markup">VideoHandler</property>
  <property name="meta.attr.0.stream.encoder.markup">AVC Coding</property>
  <property name="meta.attr.1.stream.creation_time.markup">2022-09-08T02:13:35.000000Z</property>
  <property name="meta.attr.1.stream.handler_name.markup">SoundHandler</property>
  <property name="meta.attr.major_brand.markup">mp42</property>
  <property name="meta.attr.minor_version.markup">0</property>
  <property name="meta.attr.compatible_brands.markup">mp41isom</property>
  <property name="meta.attr.creation_time.markup">2022-09-08T02:13:35.000000Z</property>
 </producer>
 <playlist id="playlist8">
  <property name="kdenlive:audio_track">1</property>
  <entry producer="producer6" in="00:00:02.202" out="00:00:32.532">
   <property name="kdenlive:id">2</property>
  </entry>
 </playlist>
 <playlist id="playlist9">
  <property name="kdenlive:audio_track">1</property>
 </playlist>
 <tractor id="tractor4" in="00:00:00.000" out="00:00:30.330">
  <property name="kdenlive:audio_track">1</property>
  <property name="kdenlive:trackheight">67</property>
  <property name="kdenlive:timeline_active">1</property>
  <property name="kdenlive:collapsed">0</property>
  <property name="kdenlive:thumbs_format"/>
  <property name="kdenlive:audio_rec"/>
  <track hide="video" producer="playlist8"/>
  <track hide="video" producer="playlist9"/>
  <filter id="filter13">
   <property name="window">75</property>
   <property name="max_gain">20dB</property>
   <property name="mlt_service">volume</property>
   <property name="internal_added">237</property>
   <property name="disable">1</property>
  </filter>
  <filter id="filter14">
   <property name="channel">-1</property>
   <property name="mlt_service">panner</property>
   <property name="internal_added">237</property>
   <property name="start">0.5</property>
   <property name="disable">1</property>
  </filter>
  <filter id="filter15">
   <property name="iec_scale">0</property>
   <property name="mlt_service">audiolevel</property>
   <property name="peak">1</property>
   <property name="disable">1</property>
  </filter>
 </tractor>
 <producer id="producer7" in="00:00:00.000" out="00:00:41.074">
  <property name="length">1232</property>
  <property name="eof">pause</property>
  <property name="resource">AGDRec.mp4</property>
  <property name="audio_index">1</property>
  <property name="video_index">0</property>
  <property name="mute_on_pause">0</property>
  <property name="mlt_service">avformat-novalidate</property>
  <property name="meta.media.nb_streams">2</property>
  <property name="meta.media.0.stream.type">video</property>
  <property name="meta.media.0.stream.frame_rate">29.9706</property>
  <property name="meta.media.0.stream.sample_aspect_ratio">0</property>
  <property name="meta.media.0.codec.width">480</property>
  <property name="meta.media.0.codec.height">320</property>
  <property name="meta.media.0.codec.rotate">0</property>
  <property name="meta.media.0.codec.pix_fmt">yuv420p</property>
  <property name="meta.media.0.codec.sample_aspect_ratio">1</property>
  <property name="meta.media.0.codec.colorspace">601</property>
  <property name="meta.media.0.codec.name">h264</property>
  <property name="meta.media.0.codec.long_name">H.264 / AVC / MPEG-4 AVC / MPEG-4 part 10</property>
  <property name="meta.media.0.codec.bit_rate">876336</property>
  <property name="meta.media.1.stream.type">audio</property>
  <property name="meta.media.1.codec.sample_fmt">fltp</property>
  <property name="meta.media.1.codec.sample_rate">48000</property>
  <property name="meta.media.1.codec.channels">2</property>
  <property name="meta.media.1.codec.name">aac</property>
  <property name="meta.media.1.codec.long_name">AAC (Advanced Audio Coding)</property>
  <property name="meta.media.1.codec.bit_rate">117362</property>
  <property name="seekable">1</property>
  <property name="meta.media.sample_aspect_num">1</property>
  <property name="meta.media.sample_aspect_den">1</property>
  <property name="aspect_ratio">1</property>
  <property name="kdenlive:clipname"/>
  <property name="kdenlive:clip_type">0</property>
  <property name="kdenlive:folderid">-1</property>
  <property name="kdenlive:id">2</property>
  <property name="kdenlive:file_size">35842816</property>
  <property name="kdenlive:file_hash">971c1fdb011e5e4debbdb5257f29f178</property>
  <property name="kdenlive:audio_max1">1</property>
  <property name="xml">was here</property>
  <property name="meta.media.frame_rate_num">1480518</property>
  <property name="meta.media.frame_rate_den">49399</property>
  <property name="meta.media.colorspace">601</property>
  <property name="meta.media.color_trc">2</property>
  <property name="meta.media.has_b_frames">0</property>
  <property name="meta.media.width">480</property>
  <property name="meta.media.height">320</property>
  <property name="meta.media.color_range">mpeg</property>
  <property name="meta.media.top_field_first">0</property>
  <property name="meta.media.progressive">1</property>
  <property name="set.test_audio">1</property>
  <property name="set.test_image">0</property>
  <property name="meta.attr.0.stream.creation_time.markup">2022-09-08T02:13:35.000000Z</property>
  <property name="meta.attr.0.stream.handler_name.markup">VideoHandler</property>
  <property name="meta.attr.0.stream.encoder.markup">AVC Coding</property>
  <property name="meta.attr.1.stream.creation_time.markup">2022-09-08T02:13:35.000000Z</property>
  <property name="meta.attr.1.stream.handler_name.markup">SoundHandler</property>
  <property name="meta.attr.major_brand.markup">mp42</property>
  <property name="meta.attr.minor_version.markup">0</property>
  <property name="meta.attr.compatible_brands.markup">mp41isom</property>
  <property name="meta.attr.creation_time.markup">2022-09-08T02:13:35.000000Z</property>
 </producer>
 <playlist id="playlist10">
  <entry producer="producer7" in="00:00:02.202" out="00:00:32.532">
   <property name="kdenlive:id">2</property>
  </entry>
 </playlist>
 <playlist id="playlist11"/>
 <tractor id="tractor5" in="00:00:00.000" out="00:00:30.330">
  <property name="kdenlive:trackheight">67</property>
  <property name="kdenlive:timeline_active">1</property>
  <property name="kdenlive:collapsed">0</property>
  <property name="kdenlive:thumbs_format"/>
  <property name="kdenlive:audio_rec"/>
  <track hide="audio" producer="playlist10"/>
  <track hide="audio" producer="playlist11"/>
 </tractor>
 <producer id="producer8" in="00:00:00.000" out="00:01:11.845">
  <property name="length">2154</property>
  <property name="eof">pause</property>
  <property name="resource">y2mate.com100729_480p.mp4</property>
  <property name="audio_index">1</property>
  <property name="video_index">0</property>
  <property name="mute_on_pause">0</property>
  <property name="mlt_service">avformat-novalidate</property>
  <property name="seekable">1</property>
  <property name="aspect_ratio">1</property>
  <property name="kdenlive:clipname"/>
  <property name="kdenlive:clip_type">0</property>
  <property name="kdenlive:proxy">-</property>
  <property name="kdenlive:originalurl">y2mate.com100729_480p.mp4</property>
  <property name="kdenlive:id">3</property>
  <property name="kdenlive:file_size">10359460</property>
  <property name="kdenlive:file_hash">ec2ecf45e41100dd8bf9696dc723ad7f</property>
  <property name="kdenlive:folderid">-1</property>
  <property name="xml">was here</property>
  <property name="meta.media.nb_streams">2</property>
  <property name="meta.media.0.stream.type">video</property>
  <property name="meta.media.0.stream.frame_rate">29.97</property>
  <property name="meta.media.0.stream.sample_aspect_ratio">1</property>
  <property name="meta.media.0.codec.width">854</property>
  <property name="meta.media.0.codec.height">480</property>
  <property name="meta.media.0.codec.rotate">0</property>
  <property name="meta.media.0.codec.pix_fmt">yuv420p</property>
  <property name="meta.media.0.codec.sample_aspect_ratio">1</property>
  <property name="meta.media.0.codec.colorspace">709</property>
  <property name="meta.media.0.codec.color_trc">1</property>
  <property name="meta.media.0.codec.name">h264</property>
  <property name="meta.media.0.codec.long_name">H.264 / AVC / MPEG-4 AVC / MPEG-4 part 10</property>
  <property name="meta.media.0.codec.bit_rate">1021544</property>
  <property name="meta.attr.0.stream.handler_name.markup">ISO Media file produced by Google Inc. Created on: 07/16/2022.</property>
  <property name="meta.media.1.stream.type">audio</property>
  <property name="meta.media.1.codec.sample_fmt">fltp</property>
  <property name="meta.media.1.codec.sample_rate">44100</property>
  <property name="meta.media.1.codec.channels">2</property>
  <property name="meta.media.1.codec.name">aac</property>
  <property name="meta.media.1.codec.long_name">AAC (Advanced Audio Coding)</property>
  <property name="meta.media.1.codec.bit_rate">125588</property>
  <property name="meta.attr.1.stream.handler_name.markup">SoundHandler</property>
  <property name="meta.attr.major_brand.markup">isom</property>
  <property name="meta.attr.minor_version.markup">512</property>
  <property name="meta.attr.compatible_brands.markup">isomiso2avc1mp41</property>
  <property name="meta.attr.encoder.markup">Lavf58.19.102</property>
  <property name="meta.media.sample_aspect_num">1</property>
  <property name="meta.media.sample_aspect_den">1</property>
  <property name="meta.media.frame_rate_num">30000</property>
  <property name="meta.media.frame_rate_den">1001</property>
  <property name="meta.media.colorspace">709</property>
  <property name="meta.media.color_trc">1</property>
  <property name="meta.media.has_b_frames">0</property>
  <property name="meta.media.width">854</property>
  <property name="meta.media.height">480</property>
  <property name="meta.media.color_range">mpeg</property>
  <property name="meta.media.top_field_first">0</property>
  <property name="meta.media.progressive">1</property>
  <property name="set.test_audio">1</property>
  <property name="set.test_image">0</property>
 </producer>
 <playlist id="playlist12">
  <blank length="00:00:10.377"/>
  <entry producer="producer8" in="00:00:55.822" out="00:00:57.257">
   <property name="kdenlive:id">3</property>
   <filter id="filter16">
    <property name="rotate_center">1</property>
    <property name="mlt_service">qtblend</property>
    <property name="kdenlive_id">qtblend</property>
    <property name="rect">00:00:55.822=72 344 385 255 1.000000;00:00:55.856=72 297 385 255 1.000000;00:00:55.889=72 267 385 255 1.000000;00:00:55.923=72 254 385 255 1.000000;00:00:55.956=72 254 385 255 1.000000;00:00:55.989=72 254 385 255 1.000000;00:00:56.023=72 254 385 255 1.000000;00:00:56.056=72 254 385 255 1.000000;00:00:56.089=72 254 385 255 1.000000;00:00:56.123=72 254 385 255 1.000000;00:00:56.156=72 254 385 255 1.000000;00:00:56.189=72 254 385 255 1.000000;00:00:56.223=72 254 385 255 1.000000;00:00:56.256=72 254 385 255 1.000000;00:00:56.290=72 254 385 255 1.000000;00:00:56.323=72 252 385 255 1.000000;00:00:56.356=72 240 385 255 1.000000;00:00:56.390=72 218 385 255 1.000000;00:00:56.423=72 204 385 255 1.000000;00:00:56.456=72 167 385 255 1.000000;00:00:56.490=72 156 385 255 1.000000;00:00:56.523=72 154 385 255 1.000000;00:00:56.556=72 152 385 255 1.000000;00:00:56.590=72 147 385 255 1.000000;00:00:56.623=72 127 385 255 1.000000;00:00:56.657=72 101 385 255 1.000000;00:00:56.690=72 73 385 255 1.000000;00:00:56.723=72 57 385 255 1.000000;00:00:56.757=72 53 385 255 1.000000;00:00:56.790=72 53 385 255 1.000000;00:00:56.823=72 53 385 255 1.000000;00:00:56.857=72 51 385 255 1.000000;00:00:56.890=72 37 385 255 1.000000;00:00:56.924=72 17 385 255 1.000000;00:00:56.957=72 -26 385 255 1.000000;00:00:56.990=72 -35 385 255 1.000000;00:00:57.024=72 -42 385 255 1.000000;00:00:57.257=72 -42 385 255 1.000000</property>
    <property name="rotation">00:00:55.822=0;00:00:55.856=0;00:00:55.889=0;00:00:55.923=0;00:00:55.956=0;00:00:55.989=0;00:00:56.023=0;00:00:56.056=0;00:00:56.089=0;00:00:56.123=0;00:00:56.156=0;00:00:56.189=0;00:00:56.223=0;00:00:56.256=0;00:00:56.290=0;00:00:56.323=0;00:00:56.356=0;00:00:56.390=0;00:00:56.423=0;00:00:56.456=0;00:00:56.490=0;00:00:56.523=0;00:00:56.556=0;00:00:56.590=0;00:00:56.623=0;00:00:56.657=0;00:00:56.690=0;00:00:56.723=0;00:00:56.757=0;00:00:56.790=0;00:00:56.823=0;00:00:56.857=0;00:00:56.890=0;00:00:56.924=0;00:00:56.957=0;00:00:56.990=0;00:00:57.024=0;00:00:57.257=0</property>
    <property name="compositing">0</property>
    <property name="distort">0</property>
    <property name="kdenlive:collapsed">0</property>
   </filter>
  </entry>
  <entry producer="producer8" in="00:00:57.291" out="00:01:11.845">
   <property name="kdenlive:id">3</property>
   <filter id="filter17">
    <property name="rotate_center">1</property>
    <property name="mlt_service">qtblend</property>
    <property name="kdenlive_id">qtblend</property>
    <property name="rect">00:00:57.291=72 -41 385 255 1.000000;00:00:57.324=72 -43 385 255 1.000000;00:00:57.357=72 -49 385 255 1.000000;00:00:57.391=72 -81 385 255 1.000000;00:00:57.424=72 -111 385 255 1.000000;00:00:57.457=72 -133 385 255 1.000000;00:00:57.491=72 -142 385 255 1.000000;00:00:57.524=72 -144 385 255 1.000000;00:00:57.925=72 -144 385 255 1.000000;00:00:57.958=72 -143 385 255 1.000000;00:00:57.991=72 -138 385 255 1.000000;00:00:58.025=72 -123 385 255 1.000000;00:00:58.058=72 -95 385 255 1.000000;00:00:58.091=72 -68 385 255 1.000000;00:00:58.125=72 -48 385 255 1.000000;00:00:58.158=72 -44 385 255 1.000000;00:00:58.191=72 -44 385 255 1.000000;00:00:58.225=72 -42 385 255 1.000000;00:00:58.258=72 -22 385 255 1.000000;00:00:58.292=72 5 385 255 1.000000;00:00:58.325=72 32 385 255 1.000000;00:00:58.358=72 43 385 255 1.000000;00:00:58.392=72 53 385 255 1.000000</property>
    <property name="rotation">00:00:57.291=0;00:00:57.324=0;00:00:57.357=0;00:00:57.391=0;00:00:57.424=0;00:00:57.457=0;00:00:57.491=0;00:00:57.524=0;00:00:57.925=0;00:00:57.958=0;00:00:57.991=0;00:00:58.025=0;00:00:58.058=0;00:00:58.091=0;00:00:58.125=0;00:00:58.158=0;00:00:58.191=0;00:00:58.225=0;00:00:58.258=0;00:00:58.292=0;00:00:58.325=0;00:00:58.358=0;00:00:58.392=0</property>
    <property name="compositing">0</property>
    <property name="distort">0</property>
    <property name="kdenlive:collapsed">0</property>
   </filter>
  </entry>
 </playlist>
 <playlist id="playlist13"/>
 <tractor id="tractor6" in="00:00:00.000" out="00:00:26.393">
  <property name="kdenlive:trackheight">67</property>
  <property name="kdenlive:timeline_active">1</property>
  <property name="kdenlive:collapsed">0</property>
  <property name="kdenlive:thumbs_format"/>
  <property name="kdenlive:audio_rec"/>
  <track hide="audio" producer="playlist12"/>
  <track hide="audio" producer="playlist13"/>
 </tractor>
 <producer id="producer9" in="00:00:00.000" out="00:00:41.074">
  <property name="length">1232</property>
  <property name="eof">pause</property>
  <property name="resource">AGDRec.mp4</property>
  <property name="audio_index">1</property>
  <property name="video_index">0</property>
  <property name="mute_on_pause">0</property>
  <property name="mlt_service">avformat-novalidate</property>
  <property name="seekable">1</property>
  <property name="aspect_ratio">1</property>
  <property name="kdenlive:clipname"/>
  <property name="kdenlive:clip_type">0</property>
  <property name="kdenlive:folderid">-1</property>
  <property name="kdenlive:id">2</property>
  <property name="kdenlive:file_size">35842816</property>
  <property name="kdenlive:file_hash">971c1fdb011e5e4debbdb5257f29f178</property>
  <property name="kdenlive:audio_max1">1</property>
  <property name="xml">was here</property>
  <property name="meta.media.nb_streams">2</property>
  <property name="meta.media.0.stream.type">video</property>
  <property name="meta.media.0.stream.frame_rate">29.9706</property>
  <property name="meta.media.0.stream.sample_aspect_ratio">0</property>
  <property name="meta.media.0.codec.width">480</property>
  <property name="meta.media.0.codec.height">320</property>
  <property name="meta.media.0.codec.rotate">0</property>
  <property name="meta.media.0.codec.pix_fmt">yuv420p</property>
  <property name="meta.media.0.codec.sample_aspect_ratio">1</property>
  <property name="meta.media.0.codec.colorspace">601</property>
  <property name="meta.media.0.codec.name">h264</property>
  <property name="meta.media.0.codec.long_name">H.264 / AVC / MPEG-4 AVC / MPEG-4 part 10</property>
  <property name="meta.media.0.codec.bit_rate">876336</property>
  <property name="meta.media.1.stream.type">audio</property>
  <property name="meta.media.1.codec.sample_fmt">fltp</property>
  <property name="meta.media.1.codec.sample_rate">48000</property>
  <property name="meta.media.1.codec.channels">2</property>
  <property name="meta.media.1.codec.name">aac</property>
  <property name="meta.media.1.codec.long_name">AAC (Advanced Audio Coding)</property>
  <property name="meta.media.1.codec.bit_rate">117362</property>
  <property name="meta.media.sample_aspect_num">1</property>
  <property name="meta.media.sample_aspect_den">1</property>
  <property name="meta.media.frame_rate_num">1480518</property>
  <property name="meta.media.frame_rate_den">49399</property>
  <property name="meta.media.colorspace">601</property>
  <property name="meta.media.color_trc">2</property>
  <property name="meta.media.has_b_frames">0</property>
  <property name="meta.media.width">480</property>
  <property name="meta.media.height">320</property>
  <property name="meta.media.color_range">mpeg</property>
  <property name="meta.media.top_field_first">0</property>
  <property name="meta.media.progressive">1</property>
  <property name="set.test_audio">1</property>
  <property name="set.test_image">0</property>
  <property name="meta.attr.0.stream.creation_time.markup">2022-09-08T02:13:35.000000Z</property>
  <property name="meta.attr.0.stream.handler_name.markup">VideoHandler</property>
  <property name="meta.attr.0.stream.encoder.markup">AVC Coding</property>
  <property name="meta.attr.1.stream.creation_time.markup">2022-09-08T02:13:35.000000Z</property>
  <property name="meta.attr.1.stream.handler_name.markup">SoundHandler</property>
  <property name="meta.attr.major_brand.markup">mp42</property>
  <property name="meta.attr.minor_version.markup">0</property>
  <property name="meta.attr.compatible_brands.markup">mp41isom</property>
  <property name="meta.attr.creation_time.markup">2022-09-08T02:13:35.000000Z</property>
 </producer>
 <playlist id="playlist14">
  <entry producer="producer9" in="00:00:02.202" out="00:00:32.499">
   <property name="kdenlive:id">2</property>
   <filter id="filter18">
    <property name="mode">alpha</property>
    <property name="alpha_operation">clear</property>
    <property name="invert">0</property>
    <property name="feather">0</property>
    <property name="feather_passes">1</property>
    <property name="mlt_service">rotoscoping</property>
    <property name="kdenlive_id">rotoscoping</property>
    <property name="spline">{
    "066": [
        [
            [
                -0.03910690121786198,
                0.09918864097363085
            ],
            [
                -0.03856562922868742,
                0.11866125760649089
            ],
            [
                0.17334235453315294,
                0.11866125760649089
            ]
        ],
        [
            [
                0.8090663058186739,
                0.11866125760649089
            ],
            [
                1.0209742895805143,
                0.11866125760649089
            ],
            [
                1.0196211096075778,
                0.09959432048681542
            ]
        ],
        [
            [
                1.0155615696887685,
                0.04239350912778905
            ],
            [
                1.0142083897158323,
                0.02332657200811359
            ],
            [
                0.8031123139377537,
                0.022920892494929006
            ]
        ],
        [
            [
                0.16982408660351828,
                0.021703853955375253
            ],
            [
                -0.041271989174560215,
                0.02129817444219067
            ],
            [
                -0.04073071718538566,
                0.040770791075050716
            ]
        ]
    ],
    "299": [
        [
            [
                -0.036400541271989176,
                0.09918864097363085
            ],
            [
                -0.03585926928281461,
                0.11866125760649089
            ],
            [
                0.17604871447902576,
                0.11866125760649089
            ]
        ],
        [
            [
                0.8198917456021655,
                0.11866125760649089
            ],
            [
                1.0317997293640055,
                0.11866125760649089
            ],
            [
                1.0304465493910695,
                0.09959432048681542
            ]
        ],
        [
            [
                1.0358592692828144,
                -0.024543610547667342
            ],
            [
                1.0345060893098783,
                -0.043610547667342806
            ],
            [
                0.8234100135318001,
                -0.044016227180527376
            ]
        ],
        [
            [
                0.15358592692828144,
                -0.05537525354969575
            ],
            [
                -0.05751014884979702,
                -0.055780933062880324
            ],
            [
                -0.056968876860622464,
                -0.03630831643002027
            ]
        ]
    ],
    "974": [
        [
            [
                -0.03866703378249059,
                0.09918864097363085
            ],
            [
                -0.03812576179331603,
                0.11866125760649089
            ],
            [
                0.1737822219685243,
                0.11866125760649089
            ]
        ],
        [
            [
                0.8108257755601596,
                0.11866125760649089
            ],
            [
                1.0227337593219998,
                0.11866125760649089
            ],
            [
                1.0213805793490633,
                0.09959432048681542
            ]
        ],
        [
            [
                1.0188605754540538,
                0.03151415096713795
            ],
            [
                1.0175073954811176,
                0.012447213847462491
            ],
            [
                0.8064113197030391,
                0.012041534334277914
            ]
        ],
        [
            [
                0.16718488199128995,
                0.009176108194625499
            ],
            [
                -0.04391119378678853,
                0.008770428681440911
            ],
            [
                -0.043369921797613974,
                0.02824304531430096
            ]
        ]
    ]
}
</property>
    <property name="kdenlive:collapsed">0</property>
   </filter>
  </entry>
 </playlist>
 <playlist id="playlist15"/>
 <tractor id="tractor7" in="00:00:00.000" out="00:00:30.297">
  <property name="kdenlive:trackheight">67</property>
  <property name="kdenlive:timeline_active">1</property>
  <property name="kdenlive:collapsed">0</property>
  <property name="kdenlive:thumbs_format"/>
  <property name="kdenlive:audio_rec"/>
  <track hide="audio" producer="playlist14"/>
  <track hide="audio" producer="playlist15"/>
 </tractor>
 <playlist id="playlist16"/>
 <playlist id="playlist17"/>
 <tractor id="tractor8" in="00:00:00.000">
  <property name="kdenlive:trackheight">67</property>
  <property name="kdenlive:timeline_active">1</property>
  <property name="kdenlive:collapsed">0</property>
  <property name="kdenlive:thumbs_format"/>
  <property name="kdenlive:audio_rec"/>
  <track hide="audio" producer="playlist16"/>
  <track hide="audio" producer="playlist17"/>
 </tractor>
 <playlist id="playlist18"/>
 <playlist id="playlist19"/>
 <tractor id="tractor9" in="00:00:00.000">
  <property name="kdenlive:trackheight">67</property>
  <property name="kdenlive:timeline_active">1</property>
  <property name="kdenlive:collapsed">0</property>
  <property name="kdenlive:thumbs_format"/>
  <property name="kdenlive:audio_rec"/>
  <track hide="audio" producer="playlist18"/>
  <track hide="audio" producer="playlist19"/>
 </tractor>
 <tractor id="tractor10" in="00:00:00.000" out="00:17:11.345">
  <track producer="black_track"/>
  <track producer="tractor0"/>
  <track producer="tractor1"/>
  <track producer="tractor2"/>
  <track producer="tractor3"/>
  <track producer="tractor4"/>
  <track producer="tractor5"/>
  <track producer="tractor6"/>
  <track producer="tractor7"/>
  <track producer="tractor8"/>
  <track producer="tractor9"/>
  <transition id="transition0">
   <property name="a_track">0</property>
   <property name="b_track">1</property>
   <property name="mlt_service">mix</property>
   <property name="kdenlive_id">mix</property>
   <property name="internal_added">237</property>
   <property name="always_active">1</property>
   <property name="accepts_blanks">1</property>
   <property name="sum">1</property>
  </transition>
  <transition id="transition1">
   <property name="a_track">0</property>
   <property name="b_track">2</property>
   <property name="mlt_service">mix</property>
   <property name="kdenlive_id">mix</property>
   <property name="internal_added">237</property>
   <property name="always_active">1</property>
   <property name="accepts_blanks">1</property>
   <property name="sum">1</property>
  </transition>
  <transition id="transition2">
   <property name="a_track">0</property>
   <property name="b_track">3</property>
   <property name="mlt_service">mix</property>
   <property name="kdenlive_id">mix</property>
   <property name="internal_added">237</property>
   <property name="always_active">1</property>
   <property name="accepts_blanks">1</property>
   <property name="sum">1</property>
  </transition>
  <transition id="transition3">
   <property name="a_track">0</property>
   <property name="b_track">4</property>
   <property name="mlt_service">mix</property>
   <property name="kdenlive_id">mix</property>
   <property name="internal_added">237</property>
   <property name="always_active">1</property>
   <property name="accepts_blanks">1</property>
   <property name="sum">1</property>
  </transition>
  <transition id="transition4">
   <property name="a_track">0</property>
   <property name="b_track">5</property>
   <property name="mlt_service">mix</property>
   <property name="kdenlive_id">mix</property>
   <property name="internal_added">237</property>
   <property name="always_active">1</property>
   <property name="accepts_blanks">1</property>
   <property name="sum">1</property>
  </transition>
  <transition id="transition5">
   <property name="a_track">0</property>
   <property name="b_track">6</property>
   <property name="version">0.9</property>
   <property name="mlt_service">frei0r.cairoblend</property>
   <property name="kdenlive_id">frei0r.cairoblend</property>
   <property name="internal_added">237</property>
   <property name="always_active">1</property>
  </transition>
  <transition id="transition6">
   <property name="a_track">0</property>
   <property name="b_track">7</property>
   <property name="version">0.9</property>
   <property name="mlt_service">frei0r.cairoblend</property>
   <property name="kdenlive_id">frei0r.cairoblend</property>
   <property name="internal_added">237</property>
   <property name="always_active">1</property>
  </transition>
  <transition id="transition7">
   <property name="a_track">0</property>
   <property name="b_track">8</property>
   <property name="version">0.9</property>
   <property name="mlt_service">frei0r.cairoblend</property>
   <property name="kdenlive_id">frei0r.cairoblend</property>
   <property name="internal_added">237</property>
   <property name="always_active">1</property>
  </transition>
  <transition id="transition8">
   <property name="a_track">0</property>
   <property name="b_track">9</property>
   <property name="version">0.9</property>
   <property name="mlt_service">frei0r.cairoblend</property>
   <property name="kdenlive_id">frei0r.cairoblend</property>
   <property name="internal_added">237</property>
   <property name="always_active">1</property>
  </transition>
  <transition id="transition9">
   <property name="a_track">0</property>
   <property name="b_track">10</property>
   <property name="version">0.9</property>
   <property name="mlt_service">frei0r.cairoblend</property>
   <property name="kdenlive_id">frei0r.cairoblend</property>
   <property name="internal_added">237</property>
   <property name="always_active">1</property>
  </transition>
  <filter id="filter19">
   <property name="window">75</property>
   <property name="max_gain">20dB</property>
   <property name="mlt_service">volume</property>
   <property name="internal_added">237</property>
   <property name="disable">1</property>
  </filter>
  <filter id="filter20">
   <property name="channel">-1</property>
   <property name="mlt_service">panner</property>
   <property name="internal_added">237</property>
   <property name="start">0.5</property>
   <property name="disable">1</property>
  </filter>
  <filter id="filter21">
   <property name="iec_scale">0</property>
   <property name="mlt_service">audiolevel</property>
   <property name="peak">1</property>
   <property name="disable">1</property>
  </filter>
 </tractor>
</mlt>
